<?xml version="1.0" encoding="us-ascii" standalone="no"?><svg xmlns="http://www.w3.org/2000/svg" xmlns:xlink="http://www.w3.org/1999/xlink" contentStyleType="text/css" height="471px" preserveAspectRatio="none" style="width:1472px;height:471px;background:#FFFFFF;" version="1.1" viewBox="0 0 1472 471" width="1472px" zoomAndPan="magnify"><defs/><g><text fill="#000000" font-family="sans-serif" font-size="14" font-weight="bold" lengthAdjust="spacing" textLength="269" x="594.5" y="24.5332">LojaVents - Diagrama de componentes</text><!--cluster Frontend--><g id="cluster_Frontend"><rect fill="none" height="100" rx="2.5" ry="2.5" style="stroke:#181818;stroke-width:1.0;" width="318" x="7" y="347.6094"/><text fill="#000000" font-family="sans-serif" font-size="14" font-weight="bold" lengthAdjust="spacing" textLength="65" x="133.5" y="364.1426">Frontend</text></g><!--cluster Backend--><g id="cluster_Backend"><rect fill="none" height="278" rx="2.5" ry="2.5" style="stroke:#181818;stroke-width:1.0;" width="1270" x="159" y="45.6094"/><text fill="#000000" font-family="sans-serif" font-size="14" font-weight="bold" lengthAdjust="spacing" textLength="134" x="727" y="62.1426">Backend LojaVents</text></g><!--cluster Persistence--><g id="cluster_Persistence"><rect fill="none" height="118" rx="2.5" ry="2.5" style="stroke:#181818;stroke-width:1.0;" width="332" x="1134" y="347.6094"/><text fill="#000000" font-family="sans-serif" font-size="14" font-weight="bold" lengthAdjust="spacing" textLength="87" x="1256.5" y="364.1426">Persistencia</text></g><!--entity SPA--><g id="elem_SPA"><rect fill="#F1F1F1" height="47.6094" rx="2.5" ry="2.5" style="stroke:#181818;stroke-width:0.5;" width="120" x="23" y="383.6094"/><rect fill="#F1F1F1" height="10" style="stroke:#181818;stroke-width:0.5;" width="15" x="123" y="388.6094"/><rect fill="#F1F1F1" height="2" style="stroke:#181818;stroke-width:0.5;" width="4" x="121" y="390.6094"/><rect fill="#F1F1F1" height="2" style="stroke:#181818;stroke-width:0.5;" width="4" x="121" y="394.6094"/><text fill="#000000" font-family="sans-serif" font-size="14" lengthAdjust="spacing" textLength="80" x="38" y="418.1426">SPA Angular</text></g><!--entity Nginx--><g id="elem_Nginx"><rect fill="#F1F1F1" height="47.6094" rx="2.5" ry="2.5" style="stroke:#181818;stroke-width:0.5;" width="74" x="235" y="383.6094"/><rect fill="#F1F1F1" height="10" style="stroke:#181818;stroke-width:0.5;" width="15" x="289" y="388.6094"/><rect fill="#F1F1F1" height="2" style="stroke:#181818;stroke-width:0.5;" width="4" x="287" y="390.6094"/><rect fill="#F1F1F1" height="2" style="stroke:#181818;stroke-width:0.5;" width="4" x="287" y="394.6094"/><text fill="#000000" font-family="sans-serif" font-size="14" lengthAdjust="spacing" textLength="34" x="250" y="418.1426">Nginx</text></g><!--entity APIWeb--><g id="elem_APIWeb"><ellipse cx="272" cy="298.6094" fill="#F1F1F1" rx="8" ry="8" style="stroke:#181818;stroke-width:0.5;"/><text fill="#000000" font-family="sans-serif" font-size="14" lengthAdjust="spacing" textLength="54" x="245" y="330.1426">API Web</text></g><!--entity API--><g id="elem_API"><rect fill="#F1F1F1" height="47.6094" rx="2.5" ry="2.5" style="stroke:#181818;stroke-width:0.5;" width="102" x="221" y="223.6094"/><rect fill="#F1F1F1" height="10" style="stroke:#181818;stroke-width:0.5;" width="15" x="303" y="228.6094"/><rect fill="#F1F1F1" height="2" style="stroke:#181818;stroke-width:0.5;" width="4" x="301" y="230.6094"/><rect fill="#F1F1F1" height="2" style="stroke:#181818;stroke-width:0.5;" width="4" x="301" y="234.6094"/><text fill="#000000" font-family="sans-serif" font-size="14" lengthAdjust="spacing" textLength="62" x="236" y="258.1426">API REST</text></g><!--entity UsersPort--><g id="elem_UsersPort"><ellipse cx="272" cy="196.6094" fill="#F1F1F1" rx="8" ry="8" style="stroke:#181818;stroke-width:0.5;"/><text fill="#000000" font-family="sans-serif" font-size="14" lengthAdjust="spacing" textLength="55" x="244.5" y="228.1426">Usuarios</text></g><!--entity Identity--><g id="elem_Identity"><rect fill="#F1F1F1" height="47.6094" rx="2.5" ry="2.5" style="stroke:#181818;stroke-width:0.5;" width="194" x="175" y="119.6094"/><rect fill="#F1F1F1" height="10" style="stroke:#181818;stroke-width:0.5;" width="15" x="349" y="124.6094"/><rect fill="#F1F1F1" height="2" style="stroke:#181818;stroke-width:0.5;" width="4" x="347" y="126.6094"/><rect fill="#F1F1F1" height="2" style="stroke:#181818;stroke-width:0.5;" width="4" x="347" y="130.6094"/><text fill="#000000" font-family="sans-serif" font-size="14" lengthAdjust="spacing" textLength="154" x="190" y="154.1426">Autenticaci&#243;n y usuarios</text></g><!--entity VenuesPort--><g id="elem_VenuesPort"><ellipse cx="488" cy="219.6094" fill="#F1F1F1" rx="8" ry="8" style="stroke:#181818;stroke-width:0.5;"/><text fill="#000000" font-family="sans-serif" font-size="14" lengthAdjust="spacing" textLength="49" x="463.5" y="251.1426">Locales</text></g><!--entity Venues--><g id="elem_Venues"><rect fill="#F1F1F1" height="47.6094" rx="2.5" ry="2.5" style="stroke:#181818;stroke-width:0.5;" width="190" x="393" y="118.6094"/><rect fill="#F1F1F1" height="10" style="stroke:#181818;stroke-width:0.5;" width="15" x="563" y="123.6094"/><rect fill="#F1F1F1" height="2" style="stroke:#181818;stroke-width:0.5;" width="4" x="561" y="125.6094"/><rect fill="#F1F1F1" height="2" style="stroke:#181818;stroke-width:0.5;" width="4" x="561" y="129.6094"/><text fill="#000000" font-family="sans-serif" font-size="14" lengthAdjust="spacing" textLength="150" x="408" y="153.1426">Locales y disponibilidad</text></g><!--entity ReservationsPort--><g id="elem_ReservationsPort"><ellipse cx="710.5" cy="278.6094" fill="#F1F1F1" rx="8" ry="8" style="stroke:#181818;stroke-width:0.5;"/><text fill="#000000" font-family="sans-serif" font-size="14" lengthAdjust="spacing" textLength="60" x="680.5" y="310.1426">Reservas</text></g><!--entity Reservations--><g id="elem_Reservations"><rect fill="#F1F1F1" height="47.6094" rx="2.5" ry="2.5" style="stroke:#181818;stroke-width:0.5;" width="207" x="607" y="117.6094"/><rect fill="#F1F1F1" height="10" style="stroke:#181818;stroke-width:0.5;" width="15" x="794" y="122.6094"/><rect fill="#F1F1F1" height="2" style="stroke:#181818;stroke-width:0.5;" width="4" x="792" y="124.6094"/><rect fill="#F1F1F1" height="2" style="stroke:#181818;stroke-width:0.5;" width="4" x="792" y="128.6094"/><text fill="#000000" font-family="sans-serif" font-size="14" lengthAdjust="spacing" textLength="167" x="622" y="152.1426">Reservas y pago simulado</text></g><!--entity EngagementPort--><g id="elem_EngagementPort"><ellipse cx="920.5" cy="278.6094" fill="#F1F1F1" rx="8" ry="8" style="stroke:#181818;stroke-width:0.5;"/><text fill="#000000" font-family="sans-serif" font-size="14" lengthAdjust="spacing" textLength="81" x="880" y="310.1426">Participaci&#243;n</text></g><!--entity Engagement--><g id="elem_Engagement"><rect fill="#F1F1F1" height="47.6094" rx="2.5" ry="2.5" style="stroke:#181818;stroke-width:0.5;" width="165" x="838" y="138.6094"/><rect fill="#F1F1F1" height="10" style="stroke:#181818;stroke-width:0.5;" width="15" x="983" y="143.6094"/><rect fill="#F1F1F1" height="2" style="stroke:#181818;stroke-width:0.5;" width="4" x="981" y="145.6094"/><rect fill="#F1F1F1" height="2" style="stroke:#181818;stroke-width:0.5;" width="4" x="981" y="149.6094"/><text fill="#000000" font-family="sans-serif" font-size="14" lengthAdjust="spacing" textLength="125" x="853" y="173.1426">Favoritos y rese&#241;as</text></g><!--entity DashboardsPort--><g id="elem_DashboardsPort"><ellipse cx="1072.5" cy="254.6094" fill="#F1F1F1" rx="8" ry="8" style="stroke:#181818;stroke-width:0.5;"/><text fill="#000000" font-family="sans-serif" font-size="14" lengthAdjust="spacing" textLength="73" x="1036" y="286.1426">Indicadores</text></g><!--entity Dashboards--><g id="elem_Dashboards"><rect fill="#F1F1F1" height="47.6094" rx="2.5" ry="2.5" style="stroke:#181818;stroke-width:0.5;" width="91" x="1027" y="159.6094"/><rect fill="#F1F1F1" height="10" style="stroke:#181818;stroke-width:0.5;" width="15" x="1098" y="164.6094"/><rect fill="#F1F1F1" height="2" style="stroke:#181818;stroke-width:0.5;" width="4" x="1096" y="166.6094"/><rect fill="#F1F1F1" height="2" style="stroke:#181818;stroke-width:0.5;" width="4" x="1096" y="170.6094"/><text fill="#000000" font-family="sans-serif" font-size="14" lengthAdjust="spacing" textLength="51" x="1042" y="194.1426">Paneles</text></g><!--entity Audit--><g id="elem_Audit"><rect fill="#F1F1F1" height="47.6094" rx="2.5" ry="2.5" style="stroke:#181818;stroke-width:0.5;" width="96" x="1160.5" y="207.6094"/><rect fill="#F1F1F1" height="10" style="stroke:#181818;stroke-width:0.5;" width="15" x="1236.5" y="212.6094"/><rect fill="#F1F1F1" height="2" style="stroke:#181818;stroke-width:0.5;" width="4" x="1234.5" y="214.6094"/><rect fill="#F1F1F1" height="2" style="stroke:#181818;stroke-width:0.5;" width="4" x="1234.5" y="218.6094"/><text fill="#000000" font-family="sans-serif" font-size="14" lengthAdjust="spacing" textLength="56" x="1175.5" y="242.1426">Auditor&#237;a</text></g><!--entity AuditData--><g id="elem_AuditData"><ellipse cx="1208.5" cy="292.6094" fill="#F1F1F1" rx="8" ry="8" style="stroke:#181818;stroke-width:0.5;"/><text fill="#000000" font-family="sans-serif" font-size="14" lengthAdjust="spacing" textLength="56" x="1180.5" y="324.1426">Auditor&#237;a</text></g><!--entity Media--><g id="elem_Media"><rect fill="#F1F1F1" height="47.6094" rx="2.5" ry="2.5" style="stroke:#181818;stroke-width:0.5;" width="85" x="1328" y="231.6094"/><rect fill="#F1F1F1" height="10" style="stroke:#181818;stroke-width:0.5;" width="15" x="1393" y="236.6094"/><rect fill="#F1F1F1" height="2" style="stroke:#181818;stroke-width:0.5;" width="4" x="1391" y="238.6094"/><rect fill="#F1F1F1" height="2" style="stroke:#181818;stroke-width:0.5;" width="4" x="1391" y="242.6094"/><text fill="#000000" font-family="sans-serif" font-size="14" lengthAdjust="spacing" textLength="45" x="1343" y="266.1426">Medios</text></g><!--entity FilesData--><g id="elem_FilesData"><ellipse cx="1370.5" cy="204.6094" fill="#F1F1F1" rx="8" ry="8" style="stroke:#181818;stroke-width:0.5;"/><text fill="#000000" font-family="sans-serif" font-size="14" lengthAdjust="spacing" textLength="54" x="1343.5" y="236.1426">Archivos</text></g><!--entity SQLData--><g id="elem_SQLData"><ellipse cx="710.5" cy="90.6094" fill="#F1F1F1" rx="8" ry="8" style="stroke:#181818;stroke-width:0.5;"/><text fill="#000000" font-family="sans-serif" font-size="14" lengthAdjust="spacing" textLength="69" x="676" y="122.1426">Datos SQL</text></g><!--entity SQLPersistence--><g id="elem_SQLPersistence"><rect fill="#F1F1F1" height="47.6094" rx="2.5" ry="2.5" style="stroke:#181818;stroke-width:0.5;" width="149" x="636" y="183.6094"/><rect fill="#F1F1F1" height="10" style="stroke:#181818;stroke-width:0.5;" width="15" x="765" y="188.6094"/><rect fill="#F1F1F1" height="2" style="stroke:#181818;stroke-width:0.5;" width="4" x="763" y="190.6094"/><rect fill="#F1F1F1" height="2" style="stroke:#181818;stroke-width:0.5;" width="4" x="763" y="194.6094"/><text fill="#000000" font-family="sans-serif" font-size="14" lengthAdjust="spacing" textLength="109" x="651" y="218.1426">Persistencia SQL</text></g><!--entity PostgreSQL--><g id="elem_PostgreSQL"><rect fill="#F1F1F1" height="65.2188" rx="2.5" ry="2.5" style="stroke:#181818;stroke-width:0.5;" width="117" x="1150" y="384.1094"/><rect fill="#F1F1F1" height="10" style="stroke:#181818;stroke-width:0.5;" width="15" x="1247" y="389.1094"/><rect fill="#F1F1F1" height="2" style="stroke:#181818;stroke-width:0.5;" width="4" x="1245" y="391.1094"/><rect fill="#F1F1F1" height="2" style="stroke:#181818;stroke-width:0.5;" width="4" x="1245" y="395.1094"/><text fill="#000000" font-family="sans-serif" font-size="14" font-style="italic" lengthAdjust="spacing" textLength="75" x="1166" y="418.6426">&#171;database&#187;</text><text fill="#000000" font-family="sans-serif" font-size="14" lengthAdjust="spacing" textLength="77" x="1165" y="436.252">PostgreSQL</text></g><!--entity MongoGridFS--><g id="elem_MongoGridFS"><rect fill="#F1F1F1" height="65.2188" rx="2.5" ry="2.5" style="stroke:#181818;stroke-width:0.5;" width="159" x="1291" y="384.1094"/><rect fill="#F1F1F1" height="10" style="stroke:#181818;stroke-width:0.5;" width="15" x="1430" y="389.1094"/><rect fill="#F1F1F1" height="2" style="stroke:#181818;stroke-width:0.5;" width="4" x="1428" y="391.1094"/><rect fill="#F1F1F1" height="2" style="stroke:#181818;stroke-width:0.5;" width="4" x="1428" y="395.1094"/><text fill="#000000" font-family="sans-serif" font-size="14" font-style="italic" lengthAdjust="spacing" textLength="75" x="1328" y="418.6426">&#171;database&#187;</text><text fill="#000000" font-family="sans-serif" font-size="14" lengthAdjust="spacing" textLength="119" x="1306" y="436.252">MongoDB / GridFS</text></g><!--link SPA to Nginx--><g id="link_SPA_Nginx"><path d="M143.06,407.6094 C173.22,407.6094 208.8,407.6094 234.93,407.6094 " fill="none" id="SPA-Nginx" style="stroke:#181818;stroke-width:1.0;"/></g><!--link Nginx to APIWeb--><g id="link_Nginx_APIWeb"><path d="M272,383.4194 C272,359.5894 272,324.4094 272,307.8594 " fill="none" id="Nginx-APIWeb" style="stroke:#181818;stroke-width:1.0;"/></g><!--link APIWeb to API--><g id="link_APIWeb_API"><path d="M272,289.2594 C272,284.3094 272,277.9894 272,271.7694 " fill="none" id="APIWeb-API" style="stroke:#181818;stroke-width:1.0;"/></g><!--link API to UsersPort--><g id="link_API_UsersPort"><path d="M269,223.5994 C269,217.1994 269,210.6594 269,205.6294 " fill="none" id="API-UsersPort" style="stroke:#181818;stroke-width:1.0;"/></g><!--link UsersPort to Identity--><g id="link_UsersPort_Identity"><path d="M272,187.3794 C272,181.9194 272,174.7294 272,167.7594 " fill="none" id="UsersPort-Identity" style="stroke:#181818;stroke-width:1.0;"/></g><!--link API to VenuesPort--><g id="link_API_VenuesPort"><path d="M323.02,238.6094 C386.03,238.6094 485,238.6094 485,238.6094 C485,238.6094 485,233.5594 485,228.6594 " fill="none" id="API-VenuesPort" style="stroke:#181818;stroke-width:1.0;"/></g><!--link VenuesPort to Venues--><g id="link_VenuesPort_Venues"><path d="M488,210.4694 C488,199.7994 488,181.6994 488,166.8794 " fill="none" id="VenuesPort-Venues" style="stroke:#181818;stroke-width:1.0;"/></g><!--link API to ReservationsPort--><g id="link_API_ReservationsPort"><path d="M319,271.8594 C319,276.3294 319,279.6094 319,279.6094 C319,279.6094 641.92,279.6094 701.21,279.6094 " fill="none" id="API-ReservationsPort" style="stroke:#181818;stroke-width:1.0;"/></g><!--link API to ReservationsPort--><!--link ReservationsPort to Reservations--><g id="link_ReservationsPort_Reservations"><path d="M719.74,275.6094 C742.61,275.6094 800,275.6094 800,275.6094 C800,275.6094 800,204.4894 800,165.8794 " fill="none" id="ReservationsPort-Reservations" style="stroke:#181818;stroke-width:1.0;"/></g><!--link API to EngagementPort--><g id="link_API_EngagementPort"><path d="M323.23,257.6094 C476.02,257.6094 918,257.6094 918,257.6094 C918,257.6094 918,263.8894 918,269.5794 " fill="none" id="API-EngagementPort" style="stroke:#181818;stroke-width:1.0;"/></g><!--link EngagementPort to Engagement--><g id="link_EngagementPort_Engagement"><path d="M924,269.5094 C924,251.8794 924,212.5694 924,186.8494 " fill="none" id="EngagementPort-Engagement" style="stroke:#181818;stroke-width:1.0;"/></g><!--link API to DashboardsPort--><g id="link_API_DashboardsPort"><path d="M323.29,251.6094 C486.86,251.6094 989.7,251.6094 1063.43,251.6094 " fill="none" id="API-DashboardsPort" style="stroke:#181818;stroke-width:1.0;"/></g><!--link DashboardsPort to Dashboards--><g id="link_DashboardsPort_Dashboards"><path d="M1073,245.3294 C1073,235.8594 1073,220.7594 1073,207.8594 " fill="none" id="DashboardsPort-Dashboards" style="stroke:#181818;stroke-width:1.0;"/></g><!--link Identity to SQLData--><g id="link_Identity_SQLData"><path d="M272,119.5894 C272,105.5694 272,90.6094 272,90.6094 C272,90.6094 638.37,90.6094 701.34,90.6094 " fill="none" id="Identity-SQLData" style="stroke:#181818;stroke-width:1.0;"/></g><!--link Reservations to SQLData--><g id="link_Reservations_SQLData"><path d="M711,117.5994 C711,111.1994 711,104.6594 711,99.6294 " fill="none" id="Reservations-SQLData" style="stroke:#181818;stroke-width:1.0;"/></g><!--link SQLData to SQLPersistence--><g id="link_SQLData_SQLPersistence"><path d="M719.56,90.6094 C746.79,90.6094 826,90.6094 826,90.6094 C826,90.6094 826,197.1094 826,197.1094 C826,197.1094 807.48,197.1094 785.28,197.1094 " fill="none" id="SQLData-SQLPersistence" style="stroke:#181818;stroke-width:1.0;"/></g><!--link SQLPersistence to PostgreSQL--><g id="link_SQLPersistence_PostgreSQL"><path d="M785.07,225.6094 C911.89,225.6094 1156,225.6094 1156,225.6094 C1156,225.6094 1156,329.1694 1156,383.7794 " fill="none" id="SQLPersistence-PostgreSQL" style="stroke:#181818;stroke-width:1.0;"/></g><!--link Audit to AuditData--><g id="link_Audit_AuditData"><path d="M1209,255.7194 C1209,265.4394 1209,276.0694 1209,283.4194 " fill="none" id="Audit-AuditData" style="stroke:#181818;stroke-width:1.0;"/></g><!--link AuditData to MongoGridFS--><g id="link_AuditData_MongoGridFS"><path d="M1217.51,292.6094 C1242.35,292.6094 1310,292.6094 1310,292.6094 C1310,292.6094 1310,347.2894 1310,384.0294 " fill="none" id="AuditData-MongoGridFS" style="stroke:#181818;stroke-width:1.0;"/></g><!--link Media to FilesData--><g id="link_Media_FilesData"><path d="M1371,231.5994 C1371,225.1994 1371,218.6594 1371,213.6294 " fill="none" id="Media-FilesData" style="stroke:#181818;stroke-width:1.0;"/></g><!--link FilesData to MongoGridFS--><g id="link_FilesData_MongoGridFS"><path d="M1379.57,204.6094 C1396.68,204.6094 1432,204.6094 1432,204.6094 C1432,204.6094 1432,324.4794 1432,383.9494 " fill="none" id="FilesData-MongoGridFS" style="stroke:#181818;stroke-width:1.0;"/></g><!--link UsersPort to VenuesPort--><!--link VenuesPort to ReservationsPort--><!--link ReservationsPort to EngagementPort--><!--link EngagementPort to DashboardsPort--><!--link Identity to Venues--><!--link Venues to Reservations--><!--link Reservations to Venues--><g id="link_Reservations_Venues"><path d="M606.74,134.2794 C598.92,134.2794 597.06,134.2794 589.3,134.2794 " fill="none" id="Reservations-to-Venues" style="stroke:#181818;stroke-width:1.0;stroke-dasharray:7.0,7.0;"/><polygon fill="#181818" points="583.3,134.2794,592.3,138.2794,588.3,134.2794,592.3,130.2794,583.3,134.2794" style="stroke:#181818;stroke-width:1.0;"/></g><!--link Reservations to Engagement--><!--link Engagement to Reservations--><g id="link_Engagement_Reservations"><path d="M837.8,156.6094 C830,156.6094 828.02,156.6094 820.06,156.6094 " fill="none" id="Engagement-to-Reservations" style="stroke:#181818;stroke-width:1.0;stroke-dasharray:7.0,7.0;"/><polygon fill="#181818" points="814.06,156.6094,823.06,160.6094,819.06,156.6094,823.06,152.6094,814.06,156.6094" style="stroke:#181818;stroke-width:1.0;"/></g><!--link Engagement to Dashboards--><!--link Identity to SQLPersistence--><!--link SQLPersistence to Audit--><!--link Audit to Media--><!--link PostgreSQL to MongoGridFS--><!--link Dashboards to Audit--><g id="link_Dashboards_Audit"><path d="M1100,207.8294 C1100,211.2394 1100,213.6094 1100,213.6094 C1100,213.6094 1125.3,213.6094 1154.28,213.6094 " fill="none" id="Dashboards-to-Audit" style="stroke:#181818;stroke-width:1.0;stroke-dasharray:7.0,7.0;"/><polygon fill="#181818" points="1160.28,213.6094,1151.28,209.6094,1155.28,213.6094,1151.28,217.6094,1160.28,213.6094" style="stroke:#181818;stroke-width:1.0;"/></g><!--SRC=[ZLJDRjGm4BxdAKPxWiCMKN7WKAtKibrKQK7RBeK3uZ0RkubfrbxPJiiAyKWS48_G5sCSEudZJLikoVnyytd-R2jinM6flkDdBgs1ASm55Xgt28n3hhOx9Sd1JPPL_CQ2LQ15KLfWGlFS2YKpSola3Ya4DfZV5bhLahrJbT9mNmhB8xyfaQbx8GkumSh4dkwWjTrJFlMsEewybP3SxdSSbBQbYXnR9LLUQhNbO7KT4qh5kE4xUFqsCcgKjyvu_2RBNFOe2pfiij2AAfHi0cYWLU1d1drQC5clJk5K5dM5ki6HFWHyB8JyqRWQAVirEEECMkDOkqutoDRgpdhn4YQdgmlumZUDZsGIXsSu_zNv-bCB267NfaOjbEUyDboR5NKg2QsfAYjopCN3NmbxgEEW2-QSTXy8boh7YdiNPLlp4SA08IOc31d5HbI28Ok20jiLJKBVeQSBYjkS4T8MIgmxB1GOiQMECtKG6gXNgAaciVDLDQXpMM31jqHtIB_0EwM5LOvV4zl3dv1L7nI8BoIZNZ6bGnVcQCgDGir6abwXvDK1Bcq_etFrms_qitDgE_GHrnmj3Wa-SDOEoudO1kky57V1iH2KHWXrJXAfrFNbqc_ivVAGTaNB8WojHYumHlPsdcno7D6W8sXwQLRAs4BpbhTNuUI4KIuRD7msImfLib3pCtW5xxLWYxKlsHczFWobtDpDdDAx8gVXvZLVc3RlrBIzH_uNMpDdemUllp2THDRkHdXGT0jwiRC7qC5kfuO44yAIZHsg0ty8I9Png0xyMTRMGUPs0U8K8dFuUqiy_w7QjR2V9dNIBIr5zilRIHq-cc7Mh33X-utjf56yB_nhAHYLyyq3PeVzZWROOfl5c3qslmJr7mDC8fwPNO9E1jVFPZJRaEcJMIR3V3IxABCdiXh9gEtrCpkHKFhtBMn5ulFFL_GM703YmG_gEphgUXFLuwo3dlG5DJwVp3y0]--></g></svg>