<?xml version="1.0" encoding="us-ascii" standalone="no"?><svg xmlns="http://www.w3.org/2000/svg" xmlns:xlink="http://www.w3.org/1999/xlink" contentStyleType="text/css" height="186px" preserveAspectRatio="none" style="width:396px;height:186px;background:#FFFFFF;" version="1.1" viewBox="0 0 396 186" width="396px" zoomAndPan="magnify"><defs/><g><text fill="#000000" font-family="sans-serif" font-size="14" font-weight="bold" lengthAdjust="spacing" textLength="309" x="36.52" y="24.5332">LojaVents - M&#225;quina de estados de Reserva</text><ellipse cx="16" cy="113.6094" fill="#222222" rx="10" ry="10" style="stroke:#222222;stroke-width:1.0;"/><g id="EN_PROCESO"><rect fill="#F8FAFC" height="50" rx="12.5" ry="12.5" style="stroke:#64748B;stroke-width:0.5;" width="115" x="86" y="88.6094"/><line style="stroke:#64748B;stroke-width:0.5;" x1="86" x2="201" y1="116.2188" y2="116.2188"/><text fill="#172033" font-family="sans-serif" font-size="14" lengthAdjust="spacing" textLength="95" x="96" y="108.1426">EN_PROCESO</text></g><g id="CONFIRMADA"><rect fill="#F8FAFC" height="50" rx="12.5" ry="12.5" style="stroke:#64748B;stroke-width:0.5;" width="111" x="261" y="45.6094"/><line style="stroke:#64748B;stroke-width:0.5;" x1="261" x2="372" y1="73.2188" y2="73.2188"/><text fill="#172033" font-family="sans-serif" font-size="14" lengthAdjust="spacing" textLength="91" x="271" y="65.1426">CONFIRMADA</text></g><g id="RECHAZADA"><rect fill="#F8FAFC" height="50" rx="12.5" ry="12.5" style="stroke:#64748B;stroke-width:0.5;" width="103" x="265" y="130.6094"/><line style="stroke:#64748B;stroke-width:0.5;" x1="265" x2="368" y1="158.2188" y2="158.2188"/><text fill="#172033" font-family="sans-serif" font-size="14" lengthAdjust="spacing" textLength="83" x="275" y="150.1426">RECHAZADA</text></g><!--link *start* to EN_PROCESO--><g id="link_*start*_EN_PROCESO"><path d="M26,113.6094 C39.1,113.6094 57.07,113.6094 79.97,113.6094 " fill="none" id="*start*-to-EN_PROCESO" style="stroke:#475569;stroke-width:1.0;"/><polygon fill="#475569" points="85.97,113.6094,76.97,109.6094,80.97,113.6094,76.97,117.6094,85.97,113.6094" style="stroke:#475569;stroke-width:1.0;"/></g><!--link EN_PROCESO to CONFIRMADA--><g id="link_EN_PROCESO_CONFIRMADA"><path d="M201.11,92.1094 C220.37,92.1094 235.8,92.1094 254.91,92.1094 " fill="none" id="EN_PROCESO-to-CONFIRMADA" style="stroke:#475569;stroke-width:1.0;"/><polygon fill="#475569" points="260.91,92.1094,251.91,88.1094,255.91,92.1094,251.91,96.1094,260.91,92.1094" style="stroke:#475569;stroke-width:1.0;"/><text fill="#172033" font-family="sans-serif" font-size="12" lengthAdjust="spacing" textLength="108" x="232.01" y="105.5664">aprobarPago(pago)</text></g><!--link EN_PROCESO to RECHAZADA--><g id="link_EN_PROCESO_RECHAZADA"><path d="M201.11,134.6094 C221.75,134.6094 238.87,134.6094 258.96,134.6094 " fill="none" id="EN_PROCESO-to-RECHAZADA" style="stroke:#475569;stroke-width:1.0;"/><polygon fill="#475569" points="264.96,134.6094,255.96,130.6094,259.96,134.6094,255.96,138.6094,264.96,134.6094" style="stroke:#475569;stroke-width:1.0;"/><text fill="#172033" font-family="sans-serif" font-size="12" lengthAdjust="spacing" textLength="154" x="234.04" y="131.0664">rechazarPago(pago, motivo)</text></g><!--SRC=[RP3RIiD048Rlzoa6UgDYmRRfGI-4D3Oes0CfUA68R9jfiZRTYRFJbbPy69_55pEr1KFrPXd-xvj_OCL8Xd1Fh_e1hJYeGl_hysrfh8OO0PtecDnkZD0XhxHI6Su4X81DaWh4Xd4gXgnIRcvihbalOAAdyuHfQUE0Cc9OfqQmn5rQjAwDJM2cCrSccR4ecno1M58ghuWMX7S5q2MEaVV5bPRNzZhTNNfqiX9sGZyC2XAIbKDMQzSl6er3DZPRX9gdFafNV6PQ7sIltMosBe_XtxP_X7rrNQcdisUeLg-XDtWPHSEWDnugzJl_e60u2E-Yld_ZmnNed6cYUQGJEicBv_JOZdh1hV-ubukFJ_MsP9_3WiIiYgrl]--></g></svg>