<?xml version="1.0" encoding="us-ascii" standalone="no"?><svg xmlns="http://www.w3.org/2000/svg" xmlns:xlink="http://www.w3.org/1999/xlink" contentStyleType="text/css" height="672px" preserveAspectRatio="none" style="width:2123px;height:672px;background:#FFFFFF;" version="1.1" viewBox="0 0 2123 672" width="2123px" zoomAndPan="magnify"><defs/><g><text fill="#000000" font-family="sans-serif" font-size="14" font-weight="bold" lengthAdjust="spacing" textLength="252" x="928.5" y="24.5332">LojaVents - Diagrama de despliegue</text><!--cluster Client--><g id="cluster_Client"><polygon fill="none" points="16,425.6094,26,415.6094,242,415.6094,242,546.6094,232,556.6094,16,556.6094,16,425.6094" style="stroke:#181818;stroke-width:1.0;"/><line style="stroke:#181818;stroke-width:1.0;" x1="232" x2="242" y1="425.6094" y2="415.6094"/><line style="stroke:#181818;stroke-width:1.0;" x1="16" x2="232" y1="425.6094" y2="425.6094"/><line style="stroke:#181818;stroke-width:1.0;" x1="232" x2="232" y1="425.6094" y2="556.6094"/><text fill="#000000" font-family="sans-serif" font-size="14" font-style="italic" lengthAdjust="spacing" textLength="56" x="97" y="443.1426">&#171;device&#187;</text><text fill="#000000" font-family="sans-serif" font-size="14" font-weight="bold" lengthAdjust="spacing" textLength="83" x="83.5" y="460.752">Cliente web</text></g><!--cluster DockerHost--><g id="cluster_DockerHost"><polygon fill="none" points="266,54.6094,276,44.6094,2106,44.6094,2106,645.6094,2096,655.6094,266,655.6094,266,54.6094" style="stroke:#181818;stroke-width:1.0;"/><line style="stroke:#181818;stroke-width:1.0;" x1="2096" x2="2106" y1="54.6094" y2="44.6094"/><line style="stroke:#181818;stroke-width:1.0;" x1="266" x2="2096" y1="54.6094" y2="54.6094"/><line style="stroke:#181818;stroke-width:1.0;" x1="2096" x2="2096" y1="54.6094" y2="655.6094"/><text fill="#000000" font-family="sans-serif" font-size="14" font-weight="bold" lengthAdjust="spacing" textLength="86" x="1139" y="72.1426">Host Docker</text></g><!--cluster Compose--><g id="cluster_Compose"><polygon fill="none" points="290,103.6094,300,93.6094,2082,93.6094,2082,621.6094,2072,631.6094,290,631.6094,290,103.6094" style="stroke:#181818;stroke-width:1.0;"/><line style="stroke:#181818;stroke-width:1.0;" x1="2072" x2="2082" y1="103.6094" y2="93.6094"/><line style="stroke:#181818;stroke-width:1.0;" x1="290" x2="2072" y1="103.6094" y2="103.6094"/><line style="stroke:#181818;stroke-width:1.0;" x1="2072" x2="2072" y1="103.6094" y2="631.6094"/><text fill="#000000" font-family="sans-serif" font-size="14" font-style="italic" lengthAdjust="spacing" textLength="154" x="1105" y="121.1426">&#171;executionEnvironment&#187;</text><text fill="#000000" font-family="sans-serif" font-size="14" font-weight="bold" lengthAdjust="spacing" textLength="120" x="1122" y="138.752">Docker Compose</text></g><!--cluster DockerNetwork--><g id="cluster_DockerNetwork"><rect fill="none" height="447" rx="2.5" ry="2.5" style="stroke:#181818;stroke-width:1.0;" width="1744" x="314" y="160.6094"/><path d="M406,160.6094 L406,171.2188 L396,181.2188 L314,181.2188 " fill="none" style="stroke:#181818;stroke-width:1.0;"/><text fill="#000000" font-family="sans-serif" font-size="14" font-weight="bold" lengthAdjust="spacing" textLength="82" x="317" y="176.1426">Red Docker</text></g><!--cluster Frontend--><g id="cluster_Frontend"><polygon fill="none" points="346,301.6094,356,291.6094,656,291.6094,656,553.6094,646,563.6094,346,563.6094,346,301.6094" style="stroke:#181818;stroke-width:1.0;"/><line style="stroke:#181818;stroke-width:1.0;" x1="646" x2="656" y1="301.6094" y2="291.6094"/><line style="stroke:#181818;stroke-width:1.0;" x1="346" x2="646" y1="301.6094" y2="301.6094"/><line style="stroke:#181818;stroke-width:1.0;" x1="646" x2="646" y1="301.6094" y2="563.6094"/><text fill="#000000" font-family="sans-serif" font-size="14" font-style="italic" lengthAdjust="spacing" textLength="154" x="420" y="319.1426">&#171;executionEnvironment&#187;</text><text fill="#000000" font-family="sans-serif" font-size="14" font-weight="bold" lengthAdjust="spacing" textLength="65" x="464.5" y="336.752">Frontend</text></g><!--cluster Nginx--><g id="cluster_Nginx"><polygon fill="none" points="386,384.6094,396,374.6094,616,374.6094,616,505.6094,606,515.6094,386,515.6094,386,384.6094" style="stroke:#181818;stroke-width:1.0;"/><line style="stroke:#181818;stroke-width:1.0;" x1="606" x2="616" y1="384.6094" y2="374.6094"/><line style="stroke:#181818;stroke-width:1.0;" x1="386" x2="606" y1="384.6094" y2="384.6094"/><line style="stroke:#181818;stroke-width:1.0;" x1="606" x2="606" y1="384.6094" y2="515.6094"/><text fill="#000000" font-family="sans-serif" font-size="14" font-style="italic" lengthAdjust="spacing" textLength="154" x="420" y="402.1426">&#171;executionEnvironment&#187;</text><text fill="#000000" font-family="sans-serif" font-size="14" font-weight="bold" lengthAdjust="spacing" textLength="40" x="477" y="419.752">Nginx</text></g><!--cluster Backend--><g id="cluster_Backend"><polygon fill="none" points="840,222.6094,850,212.6094,1198,212.6094,1198,565.6094,1188,575.6094,840,575.6094,840,222.6094" style="stroke:#181818;stroke-width:1.0;"/><line style="stroke:#181818;stroke-width:1.0;" x1="1188" x2="1198" y1="222.6094" y2="212.6094"/><line style="stroke:#181818;stroke-width:1.0;" x1="840" x2="1188" y1="222.6094" y2="222.6094"/><line style="stroke:#181818;stroke-width:1.0;" x1="1188" x2="1188" y1="222.6094" y2="575.6094"/><text fill="#000000" font-family="sans-serif" font-size="14" font-style="italic" lengthAdjust="spacing" textLength="154" x="938" y="240.1426">&#171;executionEnvironment&#187;</text><text fill="#000000" font-family="sans-serif" font-size="14" font-weight="bold" lengthAdjust="spacing" textLength="61" x="984.5" y="257.752">Backend</text></g><!--cluster JVM--><g id="cluster_JVM"><polygon fill="none" points="872,297.6094,882,287.6094,1166,287.6094,1166,525.6094,1156,535.6094,872,535.6094,872,297.6094" style="stroke:#181818;stroke-width:1.0;"/><line style="stroke:#181818;stroke-width:1.0;" x1="1156" x2="1166" y1="297.6094" y2="287.6094"/><line style="stroke:#181818;stroke-width:1.0;" x1="872" x2="1156" y1="297.6094" y2="297.6094"/><line style="stroke:#181818;stroke-width:1.0;" x1="1156" x2="1156" y1="297.6094" y2="535.6094"/><text fill="#000000" font-family="sans-serif" font-size="14" font-style="italic" lengthAdjust="spacing" textLength="154" x="938" y="315.1426">&#171;executionEnvironment&#187;</text><text fill="#000000" font-family="sans-serif" font-size="14" font-weight="bold" lengthAdjust="spacing" textLength="30" x="1000" y="332.752">JVM</text></g><!--cluster SpringBoot--><g id="cluster_SpringBoot"><polygon fill="none" points="904,372.6094,914,362.6094,1134,362.6094,1134,493.6094,1124,503.6094,904,503.6094,904,372.6094" style="stroke:#181818;stroke-width:1.0;"/><line style="stroke:#181818;stroke-width:1.0;" x1="1124" x2="1134" y1="372.6094" y2="362.6094"/><line style="stroke:#181818;stroke-width:1.0;" x1="904" x2="1124" y1="372.6094" y2="372.6094"/><line style="stroke:#181818;stroke-width:1.0;" x1="1124" x2="1124" y1="372.6094" y2="503.6094"/><text fill="#000000" font-family="sans-serif" font-size="14" font-style="italic" lengthAdjust="spacing" textLength="154" x="938" y="390.1426">&#171;executionEnvironment&#187;</text><text fill="#000000" font-family="sans-serif" font-size="14" font-weight="bold" lengthAdjust="spacing" textLength="83" x="973.5" y="407.752">Spring Boot</text></g><!--cluster PostgreSQLService--><g id="cluster_PostgreSQLService"><polygon fill="none" points="1382,438.6094,1392,428.6094,1612,428.6094,1612,565.6094,1602,575.6094,1382,575.6094,1382,438.6094" style="stroke:#181818;stroke-width:1.0;"/><line style="stroke:#181818;stroke-width:1.0;" x1="1602" x2="1612" y1="438.6094" y2="428.6094"/><line style="stroke:#181818;stroke-width:1.0;" x1="1382" x2="1602" y1="438.6094" y2="438.6094"/><line style="stroke:#181818;stroke-width:1.0;" x1="1602" x2="1602" y1="438.6094" y2="575.6094"/><text fill="#000000" font-family="sans-serif" font-size="14" font-style="italic" lengthAdjust="spacing" textLength="154" x="1416" y="456.1426">&#171;executionEnvironment&#187;</text><text fill="#000000" font-family="sans-serif" font-size="14" font-weight="bold" lengthAdjust="spacing" textLength="83" x="1451.5" y="473.752">PostgreSQL</text></g><!--cluster MongoDBService--><g id="cluster_MongoDBService"><polygon fill="none" points="1796,380.6094,1806,370.6094,2026,370.6094,2026,507.6094,2016,517.6094,1796,517.6094,1796,380.6094" style="stroke:#181818;stroke-width:1.0;"/><line style="stroke:#181818;stroke-width:1.0;" x1="2016" x2="2026" y1="380.6094" y2="370.6094"/><line style="stroke:#181818;stroke-width:1.0;" x1="1796" x2="2016" y1="380.6094" y2="380.6094"/><line style="stroke:#181818;stroke-width:1.0;" x1="2016" x2="2016" y1="380.6094" y2="517.6094"/><text fill="#000000" font-family="sans-serif" font-size="14" font-style="italic" lengthAdjust="spacing" textLength="154" x="1830" y="398.1426">&#171;executionEnvironment&#187;</text><text fill="#000000" font-family="sans-serif" font-size="14" font-weight="bold" lengthAdjust="spacing" textLength="69" x="1872.5" y="415.752">MongoDB</text></g><!--entity Browser--><g id="elem_Browser"><polygon fill="#F1F1F1" points="32,485.1094,42,475.1094,226,475.1094,226,530.3281,216,540.3281,32,540.3281,32,485.1094" style="stroke:#181818;stroke-width:0.5;"/><line style="stroke:#181818;stroke-width:0.5;" x1="216" x2="226" y1="485.1094" y2="475.1094"/><line style="stroke:#181818;stroke-width:0.5;" x1="32" x2="216" y1="485.1094" y2="485.1094"/><line style="stroke:#181818;stroke-width:0.5;" x1="216" x2="216" y1="485.1094" y2="540.3281"/><text fill="#000000" font-family="sans-serif" font-size="14" font-style="italic" lengthAdjust="spacing" textLength="154" x="47" y="509.6426">&#171;executionEnvironment&#187;</text><text fill="#000000" font-family="sans-serif" font-size="14" lengthAdjust="spacing" textLength="69" x="89.5" y="527.252">Navegador</text></g><!--entity AngularDist--><g id="elem_AngularDist"><rect fill="#F1F1F1" height="40.6094" rx="2.5" ry="2.5" style="stroke:#181818;stroke-width:0.5;" width="105" x="448" y="442.1094"/><polygon fill="#F1F1F1" points="536,447.1094,536,461.1094,548,461.1094,548,453.1094,542,447.1094,536,447.1094" style="stroke:#181818;stroke-width:0.5;"/><line style="stroke:#181818;stroke-width:0.5;" x1="542" x2="542" y1="447.1094" y2="453.1094"/><line style="stroke:#181818;stroke-width:0.5;" x1="548" x2="542" y1="453.1094" y2="453.1094"/><text fill="#000000" font-family="sans-serif" font-size="14" lengthAdjust="spacing" textLength="75" x="458" y="469.6426">Angular dist</text></g><!--entity BackendJar--><g id="elem_BackendJar"><rect fill="#F1F1F1" height="40.6094" rx="2.5" ry="2.5" style="stroke:#181818;stroke-width:0.5;" width="74" x="982" y="430.1094"/><polygon fill="#F1F1F1" points="1039,435.1094,1039,449.1094,1051,449.1094,1051,441.1094,1045,435.1094,1039,435.1094" style="stroke:#181818;stroke-width:0.5;"/><line style="stroke:#181818;stroke-width:0.5;" x1="1045" x2="1045" y1="435.1094" y2="441.1094"/><line style="stroke:#181818;stroke-width:0.5;" x1="1051" x2="1045" y1="441.1094" y2="441.1094"/><text fill="#000000" font-family="sans-serif" font-size="14" lengthAdjust="spacing" textLength="44" x="992" y="457.6426">app.jar</text></g><!--entity PostgreSQL--><g id="elem_PostgreSQL"><path d="M1438,506.1094 C1438,496.1094 1496.5,496.1094 1496.5,496.1094 C1496.5,496.1094 1555,496.1094 1555,506.1094 L1555,532.7188 C1555,542.7188 1496.5,542.7188 1496.5,542.7188 C1496.5,542.7188 1438,542.7188 1438,532.7188 L1438,506.1094 " fill="#F1F1F1" style="stroke:#181818;stroke-width:0.5;"/><path d="M1438,506.1094 C1438,516.1094 1496.5,516.1094 1496.5,516.1094 C1496.5,516.1094 1555,516.1094 1555,506.1094 " fill="none" style="stroke:#181818;stroke-width:0.5;"/><text fill="#000000" font-family="sans-serif" font-size="14" lengthAdjust="spacing" textLength="97" x="1448" y="534.6426">PostgreSQL 17</text></g><!--entity MongoDB--><g id="elem_MongoDB"><path d="M1835,448.1094 C1835,438.1094 1910.5,438.1094 1910.5,438.1094 C1910.5,438.1094 1986,438.1094 1986,448.1094 L1986,474.7188 C1986,484.7188 1910.5,484.7188 1910.5,484.7188 C1910.5,484.7188 1835,484.7188 1835,474.7188 L1835,448.1094 " fill="#F1F1F1" style="stroke:#181818;stroke-width:0.5;"/><path d="M1835,448.1094 C1835,458.1094 1910.5,458.1094 1910.5,458.1094 C1910.5,458.1094 1986,458.1094 1986,448.1094 " fill="none" style="stroke:#181818;stroke-width:0.5;"/><text fill="#000000" font-family="sans-serif" font-size="14" lengthAdjust="spacing" textLength="131" x="1845" y="476.6426">MongoDB 8 / GridFS</text></g><!--link Browser to Nginx--><g id="link_Browser_Nginx"><path d="M226.12,507.6094 C252.7775,507.6094 282.6163,507.6094 312.5319,507.6094 C327.4897,507.6094 342.4667,507.6094 357.0749,507.6094 C364.379,507.6094 371.5909,507.6094 378.6621,507.6094 C380.4299,507.6094 382.1889,507.6094 383.9383,507.6094 C384.3757,507.6094 378.8125,507.6094 379.2486,507.6094 " fill="none" id="Browser-to-Nginx" style="stroke:#181818;stroke-width:1.0;"/><polygon fill="#181818" points="385.2486,507.6094,376.2486,503.6094,380.2486,507.6094,376.2486,511.6094,385.2486,507.6094" style="stroke:#181818;stroke-width:1.0;"/><text fill="#000000" font-family="sans-serif" font-size="13" lengthAdjust="spacing" textLength="74" x="288.07" y="522.1045">HTTPS : 443</text></g><!--link Nginx to SpringBoot--><g id="link_Nginx_SpringBoot"><path d="M617.8981,507.6094 C621.3033,507.6094 624.7557,507.6094 628.2516,507.6094 C642.235,507.6094 656.9136,507.6094 672.0454,507.6094 C702.309,507.6094 734.3853,507.6094 766.3388,507.6094 C894.1525,507.6094 1020,507.6094 1020,507.6094 C1020,507.6094 1020,506.95 1020,505.9403 C1020,505.4355 1020,504.843 1020,504.2017 C1020,504.0413 1020,503.8779 1020,503.7121 C1020,503.6913 1020,509.6706 1020,509.6498 " fill="none" id="Nginx-to-SpringBoot" style="stroke:#181818;stroke-width:1.0;"/><polygon fill="#181818" points="1020,503.6498,1016,512.6498,1020,508.6498,1024,512.6498,1020,503.6498" style="stroke:#181818;stroke-width:1.0;"/><text fill="#000000" font-family="sans-serif" font-size="13" lengthAdjust="spacing" textLength="118" x="647.37" y="522.1045">HTTP / REST : 8080</text></g><!--link SpringBoot to PostgreSQL--><g id="link_SpringBoot_PostgreSQL"><path d="M1135.5998,496.3594 C1140.6369,496.3594 1145.7734,496.3594 1150.9957,496.3594 C1161.4402,496.3594 1172.228,496.3594 1183.2513,496.3594 C1271.4375,496.3594 1368.695,496.3594 1431.84,496.3594 " fill="none" id="SpringBoot-to-PostgreSQL" style="stroke:#181818;stroke-width:1.0;"/><polygon fill="#181818" points="1437.84,496.3594,1428.84,492.3594,1432.84,496.3594,1428.84,500.3594,1437.84,496.3594" style="stroke:#181818;stroke-width:1.0;"/><text fill="#000000" font-family="sans-serif" font-size="13" lengthAdjust="spacing" textLength="64" x="1163.46" y="510.8545">JPA / 5432</text></g><!--link SpringBoot to MongoDB--><g id="link_SpringBoot_MongoDB"><path d="M1136.5642,477.1094 C1137.5693,477.1094 1138.5795,477.1094 1139.5945,477.1094 C1147.715,477.1094 1156.1513,477.1094 1164.8732,477.1094 C1182.3169,477.1094 1200.9033,477.1094 1220.3915,477.1094 C1259.368,477.1094 1301.9519,477.1094 1346.2175,477.1094 C1523.28,477.1094 1721.25,477.1094 1828.88,477.1094 " fill="none" id="SpringBoot-to-MongoDB" style="stroke:#181818;stroke-width:1.0;"/><polygon fill="#181818" points="1834.88,477.1094,1825.88,473.1094,1829.88,477.1094,1825.88,481.1094,1834.88,477.1094" style="stroke:#181818;stroke-width:1.0;"/><text fill="#000000" font-family="sans-serif" font-size="13" lengthAdjust="spacing" textLength="104" x="1312.92" y="491.6045">MongoDB / 27017</text></g><!--link Frontend to Backend--><!--link Backend to PostgreSQLService--><!--link PostgreSQLService to MongoDBService--><!--SRC=[dLJVRzem47xtNt7YdPK24mXLI0NQLQX5h45zcVPWuYDn2Rx8CT1fud-VOoVWbar5an2-7zztzza-nqYJ8JpIAtz1PGfemaJoHFCD1u7sL-IPn6IBZ6MuCc08j4nI0q9gZ8qanLYnbYhdbW9B7gyJJLibnfIHXdqg3GRv3IcAKqqR1AEtOQP8kQ2zL0ciU5Q4cKmgDBzo1D8cfI2XoAh37DhT8AYvMfV1Jekn4W2DiTMl3C8UbmtW1NWVRcu4xcICmo7yPW0UE-CxJAmGxP0ZJVi2jONY6yRRShDtQYSrgOsjC1ooGztZWGe34uhNw9dUTD5JSH-4CMroAj1hyVO_EpWsmChkp1PuHd7UP8PcJtfT8UjUzxQ4GIKSi7O-QtEYpnAftXpNMPSG0RWsSiLZ0urRbMmphksC5CPLgG8Jwny91rQlxvIFx0ZLmYlxSjtJboT7jEjbcZqjodKvUICYBzVxfNjPbN3lFC-_l78Twfzo7O0Fdvt0t8vDeZ7w_kYAdDm8TJcnbsWItF0bBzvLW-lUXu9_x_z4Ag79o64h-xywLrpemnLyqrBSHs595fv1-NyedrFzv9hDOJLw0tXOBEQHNRlT3lEnCXlSaOVOBiztqS9w_LQ_nO9y2G-EOG3J-Qr5V-rssXzXjUR1qRg2TgzrtMFi-8gQFr8f1AgVxaDeITKritfSpm1dLyZEB_L8ifz1TL9I4_u0]--></g></svg>