<svg xmlns="http://www.w3.org/2000/svg" viewBox="0 0 780 620">
<defs><linearGradient id="bg" x1="0" y1="0" x2="1" y2="1"><stop stop-color="#d8eddf"/><stop offset="1" stop-color="#f8ddba"/></linearGradient></defs>
<rect x="40" y="25" width="700" height="560" rx="52" fill="url(#bg)"/>
<circle cx="610" cy="130" r="68" fill="#fff" opacity=".65"/>
<path d="M80 500 Q210 390 350 485 T700 455 V585 H80Z" fill="#286044" opacity=".92"/>
<rect x="190" y="205" width="410" height="270" rx="22" fill="#fff" opacity=".94"/>
<path d="M155 225 L395 90 L635 225Z" fill="#e7c08c"/>
<rect x="350" y="315" width="90" height="160" rx="8" fill="#986f51"/>
<g fill="#d6a055"><circle cx="235" cy="320" r="32"/><circle cx="555" cy="320" r="32"/></g>
<path d="M235 352 V455 M555 352 V455" stroke="#4a765b" stroke-width="15" stroke-linecap="round"/>
<path d="M150 480 Q270 410 395 475 T650 465" stroke="#f5e4a8" stroke-width="9" fill="none" stroke-dasharray="3 23" stroke-linecap="round"/>
<circle cx="120" cy="170" r="34" fill="#fff" opacity=".8"/><circle cx="680" cy="370" r="27" fill="#fff" opacity=".75"/>
</svg>