<?xml version="1.0" encoding="us-ascii" standalone="no"?><svg xmlns="http://www.w3.org/2000/svg" xmlns:xlink="http://www.w3.org/1999/xlink" contentStyleType="text/css" height="551px" preserveAspectRatio="none" style="width:996px;height:551px;background:#FFFFFF;" version="1.1" viewBox="0 0 996 551" width="996px" zoomAndPan="magnify"><defs/><g><text fill="#000000" font-family="sans-serif" font-size="14" font-weight="bold" lengthAdjust="spacing" textLength="239" x="371.5" y="24.5332">LojaVents - Diagrama de paquetes</text><!--cluster Frontend--><g id="cluster_Frontend"><rect fill="none" height="204" rx="2.5" ry="2.5" style="stroke:#181818;stroke-width:1.0;" width="258.5" x="328" y="45.6094"/><text fill="#000000" font-family="sans-serif" font-size="14" font-weight="bold" lengthAdjust="spacing" textLength="65" x="424.75" y="62.1426">Frontend</text></g><!--cluster Backend--><g id="cluster_Backend"><rect fill="none" height="272" rx="2.5" ry="2.5" style="stroke:#181818;stroke-width:1.0;" width="983" x="7" y="273.6094"/><text fill="#000000" font-family="sans-serif" font-size="14" font-weight="bold" lengthAdjust="spacing" textLength="61" x="468" y="290.1426">Backend</text></g><!--cluster functional--><g id="cluster_functional"><rect fill="none" height="166" rx="2.5" ry="2.5" style="stroke:#181818;stroke-width:1.0;" width="664" x="31" y="317.6094"/><text fill="#000000" font-family="sans-serif" font-size="14" font-weight="bold" lengthAdjust="spacing" textLength="147" x="289.5" y="334.1426">M&#243;dulos funcionales</text></g><!--cluster transversal--><g id="cluster_transversal"><rect fill="none" height="204" rx="2.5" ry="2.5" style="stroke:#181818;stroke-width:1.0;" width="247" x="719" y="317.6094"/><text fill="#000000" font-family="sans-serif" font-size="14" font-weight="bold" lengthAdjust="spacing" textLength="162" x="761.5" y="334.1426">M&#243;dulos transversales</text></g><!--entity core--><g id="elem_core"><path d="M490.5,137.1094 L535.5,137.1094 A3.75,3.75 0 0 1 538,139.6094 L545,160.7188 L559.5,160.7188 A2.5,2.5 0 0 1 562,163.2188 L562,175.2188 A2.5,2.5 0 0 1 559.5,177.7188 L490.5,177.7188 A2.5,2.5 0 0 1 488,175.2188 L488,139.6094 A2.5,2.5 0 0 1 490.5,137.1094 " fill="#F1F1F1" style="stroke:#181818;stroke-width:0.5;"/><line style="stroke:#181818;stroke-width:0.5;" x1="488" x2="545" y1="160.7188" y2="160.7188"/><text fill="#000000" font-family="sans-serif" font-size="14" font-weight="bold" lengthAdjust="spacing" textLength="32" x="498" y="154.6426">core</text></g><!--entity features--><g id="elem_features"><path d="M346.5,137.1094 L418.5,137.1094 A3.75,3.75 0 0 1 421,139.6094 L428,160.7188 L442.5,160.7188 A2.5,2.5 0 0 1 445,163.2188 L445,175.2188 A2.5,2.5 0 0 1 442.5,177.7188 L346.5,177.7188 A2.5,2.5 0 0 1 344,175.2188 L344,139.6094 A2.5,2.5 0 0 1 346.5,137.1094 " fill="#F1F1F1" style="stroke:#181818;stroke-width:0.5;"/><line style="stroke:#181818;stroke-width:0.5;" x1="344" x2="428" y1="160.7188" y2="160.7188"/><text fill="#000000" font-family="sans-serif" font-size="14" font-weight="bold" lengthAdjust="spacing" textLength="59" x="354" y="154.6426">features</text></g><!--entity layout--><g id="elem_layout"><path d="M485.5,82.1094 L540.5,82.1094 A3.75,3.75 0 0 1 543,84.6094 L550,105.7188 L564.5,105.7188 A2.5,2.5 0 0 1 567,108.2188 L567,120.2188 A2.5,2.5 0 0 1 564.5,122.7188 L485.5,122.7188 A2.5,2.5 0 0 1 483,120.2188 L483,84.6094 A2.5,2.5 0 0 1 485.5,82.1094 " fill="#F1F1F1" style="stroke:#181818;stroke-width:0.5;"/><line style="stroke:#181818;stroke-width:0.5;" x1="483" x2="550" y1="105.7188" y2="105.7188"/><text fill="#000000" font-family="sans-serif" font-size="14" font-weight="bold" lengthAdjust="spacing" textLength="42" x="493" y="99.6426">layout</text></g><!--entity shared--><g id="elem_shared"><path d="M482,192.1094 L544,192.1094 A3.75,3.75 0 0 1 546.5,194.6094 L553.5,215.7188 L568,215.7188 A2.5,2.5 0 0 1 570.5,218.2188 L570.5,230.2188 A2.5,2.5 0 0 1 568,232.7188 L482,232.7188 A2.5,2.5 0 0 1 479.5,230.2188 L479.5,194.6094 A2.5,2.5 0 0 1 482,192.1094 " fill="#F1F1F1" style="stroke:#181818;stroke-width:0.5;"/><line style="stroke:#181818;stroke-width:0.5;" x1="479.5" x2="553.5" y1="215.7188" y2="215.7188"/><text fill="#000000" font-family="sans-serif" font-size="14" font-weight="bold" lengthAdjust="spacing" textLength="49" x="489.5" y="209.6426">shared</text></g><!--entity auth--><g id="elem_auth"><path d="M491,354.1094 L535,354.1094 A3.75,3.75 0 0 1 537.5,356.6094 L544.5,377.7188 L559,377.7188 A2.5,2.5 0 0 1 561.5,380.2188 L561.5,392.2188 A2.5,2.5 0 0 1 559,394.7188 L491,394.7188 A2.5,2.5 0 0 1 488.5,392.2188 L488.5,356.6094 A2.5,2.5 0 0 1 491,354.1094 " fill="#F1F1F1" style="stroke:#181818;stroke-width:0.5;"/><line style="stroke:#181818;stroke-width:0.5;" x1="488.5" x2="544.5" y1="377.7188" y2="377.7188"/><text fill="#000000" font-family="sans-serif" font-size="14" font-weight="bold" lengthAdjust="spacing" textLength="31" x="498.5" y="371.6426">auth</text></g><!--entity user--><g id="elem_user"><path d="M607.5,372.1094 L652.5,372.1094 A3.75,3.75 0 0 1 655,374.6094 L662,395.7188 L676.5,395.7188 A2.5,2.5 0 0 1 679,398.2188 L679,410.2188 A2.5,2.5 0 0 1 676.5,412.7188 L607.5,412.7188 A2.5,2.5 0 0 1 605,410.2188 L605,374.6094 A2.5,2.5 0 0 1 607.5,372.1094 " fill="#F1F1F1" style="stroke:#181818;stroke-width:0.5;"/><line style="stroke:#181818;stroke-width:0.5;" x1="605" x2="662" y1="395.7188" y2="395.7188"/><text fill="#000000" font-family="sans-serif" font-size="14" font-weight="bold" lengthAdjust="spacing" textLength="32" x="615" y="389.6426">user</text></g><!--entity venue--><g id="elem_venue"><path d="M353.5,390.1094 L411.5,390.1094 A3.75,3.75 0 0 1 414,392.6094 L421,413.7188 L435.5,413.7188 A2.5,2.5 0 0 1 438,416.2188 L438,428.2188 A2.5,2.5 0 0 1 435.5,430.7188 L353.5,430.7188 A2.5,2.5 0 0 1 351,428.2188 L351,392.6094 A2.5,2.5 0 0 1 353.5,390.1094 " fill="#F1F1F1" style="stroke:#181818;stroke-width:0.5;"/><line style="stroke:#181818;stroke-width:0.5;" x1="351" x2="421" y1="413.7188" y2="413.7188"/><text fill="#000000" font-family="sans-serif" font-size="14" font-weight="bold" lengthAdjust="spacing" textLength="45" x="361" y="407.6426">venue</text></g><!--entity reservation--><g id="elem_reservation"><path d="M465.5,426.1094 L560.5,426.1094 A3.75,3.75 0 0 1 563,428.6094 L570,449.7188 L584.5,449.7188 A2.5,2.5 0 0 1 587,452.2188 L587,464.2188 A2.5,2.5 0 0 1 584.5,466.7188 L465.5,466.7188 A2.5,2.5 0 0 1 463,464.2188 L463,428.6094 A2.5,2.5 0 0 1 465.5,426.1094 " fill="#F1F1F1" style="stroke:#181818;stroke-width:0.5;"/><line style="stroke:#181818;stroke-width:0.5;" x1="463" x2="570" y1="449.7188" y2="449.7188"/><text fill="#000000" font-family="sans-serif" font-size="14" font-weight="bold" lengthAdjust="spacing" textLength="82" x="473" y="443.6426">reservation</text></g><!--entity engagement--><g id="elem_engagement"><path d="M184.5,406.1094 L285.5,406.1094 A3.75,3.75 0 0 1 288,408.6094 L295,429.7188 L309.5,429.7188 A2.5,2.5 0 0 1 312,432.2188 L312,444.2188 A2.5,2.5 0 0 1 309.5,446.7188 L184.5,446.7188 A2.5,2.5 0 0 1 182,444.2188 L182,408.6094 A2.5,2.5 0 0 1 184.5,406.1094 " fill="#F1F1F1" style="stroke:#181818;stroke-width:0.5;"/><line style="stroke:#181818;stroke-width:0.5;" x1="182" x2="295" y1="429.7188" y2="429.7188"/><text fill="#000000" font-family="sans-serif" font-size="14" font-weight="bold" lengthAdjust="spacing" textLength="88" x="192" y="423.6426">engagement</text></g><!--entity dashboard--><g id="elem_dashboard"><path d="M49.5,416.1094 L137.5,416.1094 A3.75,3.75 0 0 1 140,418.6094 L147,439.7188 L161.5,439.7188 A2.5,2.5 0 0 1 164,442.2188 L164,454.2188 A2.5,2.5 0 0 1 161.5,456.7188 L49.5,456.7188 A2.5,2.5 0 0 1 47,454.2188 L47,418.6094 A2.5,2.5 0 0 1 49.5,416.1094 " fill="#F1F1F1" style="stroke:#181818;stroke-width:0.5;"/><line style="stroke:#181818;stroke-width:0.5;" x1="47" x2="147" y1="439.7188" y2="439.7188"/><text fill="#000000" font-family="sans-serif" font-size="14" font-weight="bold" lengthAdjust="spacing" textLength="75" x="57" y="433.6426">dashboard</text></g><!--entity audit--><g id="elem_audit"><path d="M863.5,409.1094 L911.5,409.1094 A3.75,3.75 0 0 1 914,411.6094 L921,432.7188 L935.5,432.7188 A2.5,2.5 0 0 1 938,435.2188 L938,447.2188 A2.5,2.5 0 0 1 935.5,449.7188 L863.5,449.7188 A2.5,2.5 0 0 1 861,447.2188 L861,411.6094 A2.5,2.5 0 0 1 863.5,409.1094 " fill="#F1F1F1" style="stroke:#181818;stroke-width:0.5;"/><line style="stroke:#181818;stroke-width:0.5;" x1="861" x2="921" y1="432.7188" y2="432.7188"/><text fill="#000000" font-family="sans-serif" font-size="14" font-weight="bold" lengthAdjust="spacing" textLength="35" x="871" y="426.6426">audit</text></g><!--entity storage--><g id="elem_storage"><path d="M737.5,354.1094 L804.5,354.1094 A3.75,3.75 0 0 1 807,356.6094 L814,377.7188 L828.5,377.7188 A2.5,2.5 0 0 1 831,380.2188 L831,392.2188 A2.5,2.5 0 0 1 828.5,394.7188 L737.5,394.7188 A2.5,2.5 0 0 1 735,392.2188 L735,356.6094 A2.5,2.5 0 0 1 737.5,354.1094 " fill="#F1F1F1" style="stroke:#181818;stroke-width:0.5;"/><line style="stroke:#181818;stroke-width:0.5;" x1="735" x2="814" y1="377.7188" y2="377.7188"/><text fill="#000000" font-family="sans-serif" font-size="14" font-weight="bold" lengthAdjust="spacing" textLength="54" x="745" y="371.6426">storage</text></g><!--entity system--><g id="elem_system"><path d="M740,409.1094 L802,409.1094 A3.75,3.75 0 0 1 804.5,411.6094 L811.5,432.7188 L826,432.7188 A2.5,2.5 0 0 1 828.5,435.2188 L828.5,447.2188 A2.5,2.5 0 0 1 826,449.7188 L740,449.7188 A2.5,2.5 0 0 1 737.5,447.2188 L737.5,411.6094 A2.5,2.5 0 0 1 740,409.1094 " fill="#F1F1F1" style="stroke:#181818;stroke-width:0.5;"/><line style="stroke:#181818;stroke-width:0.5;" x1="737.5" x2="811.5" y1="432.7188" y2="432.7188"/><text fill="#000000" font-family="sans-serif" font-size="14" font-weight="bold" lengthAdjust="spacing" textLength="49" x="747.5" y="426.6426">system</text></g><!--entity config--><g id="elem_config"><path d="M742.5,464.1094 L799.5,464.1094 A3.75,3.75 0 0 1 802,466.6094 L809,487.7188 L823.5,487.7188 A2.5,2.5 0 0 1 826,490.2188 L826,502.2188 A2.5,2.5 0 0 1 823.5,504.7188 L742.5,504.7188 A2.5,2.5 0 0 1 740,502.2188 L740,466.6094 A2.5,2.5 0 0 1 742.5,464.1094 " fill="#F1F1F1" style="stroke:#181818;stroke-width:0.5;"/><line style="stroke:#181818;stroke-width:0.5;" x1="740" x2="809" y1="487.7188" y2="487.7188"/><text fill="#000000" font-family="sans-serif" font-size="14" font-weight="bold" lengthAdjust="spacing" textLength="44" x="750" y="481.6426">config</text></g><!--entity common--><g id="elem_common"><path d="M851.5,354.1094 L923.5,354.1094 A3.75,3.75 0 0 1 926,356.6094 L933,377.7188 L947.5,377.7188 A2.5,2.5 0 0 1 950,380.2188 L950,392.2188 A2.5,2.5 0 0 1 947.5,394.7188 L851.5,394.7188 A2.5,2.5 0 0 1 849,392.2188 L849,356.6094 A2.5,2.5 0 0 1 851.5,354.1094 " fill="#F1F1F1" style="stroke:#181818;stroke-width:0.5;"/><line style="stroke:#181818;stroke-width:0.5;" x1="849" x2="933" y1="377.7188" y2="377.7188"/><text fill="#000000" font-family="sans-serif" font-size="14" font-weight="bold" lengthAdjust="spacing" textLength="59" x="859" y="371.6426">common</text></g><!--link features to core--><g id="link_features_core"><path d="M445.33,157.6094 C459.5,157.6094 468.62,157.6094 481.85,157.6094 " fill="none" id="features-to-core" style="stroke:#181818;stroke-width:1.0;stroke-dasharray:7.0,7.0;"/><polygon fill="#181818" points="487.85,157.6094,478.85,153.6094,482.85,157.6094,478.85,161.6094,487.85,157.6094" style="stroke:#181818;stroke-width:1.0;"/></g><!--link features to shared--><g id="link_features_shared"><path d="M442,178.3994 C442,193.9794 442,212.6094 442,212.6094 C442,212.6094 453.93,212.6094 473.13,212.6094 " fill="none" id="features-to-shared" style="stroke:#181818;stroke-width:1.0;stroke-dasharray:7.0,7.0;"/><polygon fill="#181818" points="479.13,212.6094,470.13,208.6094,474.13,212.6094,470.13,216.6094,479.13,212.6094" style="stroke:#181818;stroke-width:1.0;"/></g><!--link features to layout--><g id="link_features_layout"><path d="M395,136.8194 C395,121.2394 395,102.6094 395,102.6094 C395,102.6094 438.83,102.6094 476.79,102.6094 " fill="none" id="features-to-layout" style="stroke:#181818;stroke-width:1.0;stroke-dasharray:7.0,7.0;"/><polygon fill="#181818" points="482.79,102.6094,473.79,98.6094,477.79,102.6094,473.79,106.6094,482.79,102.6094" style="stroke:#181818;stroke-width:1.0;"/></g><!--link shared to auth--><!--link auth to user--><g id="link_auth_user"><path d="M561.7,383.6094 C575.37,383.6094 584.89,383.6094 598.63,383.6094 " fill="none" id="auth-to-user" style="stroke:#181818;stroke-width:1.0;stroke-dasharray:7.0,7.0;"/><polygon fill="#181818" points="604.63,383.6094,595.63,379.6094,599.63,383.6094,595.63,387.6094,604.63,383.6094" style="stroke:#181818;stroke-width:1.0;"/></g><!--link user to storage--><g id="link_user_storage"><path d="M679.05,383.6094 C696.1,383.6094 710.55,383.6094 728.79,383.6094 " fill="none" id="user-to-storage" style="stroke:#181818;stroke-width:1.0;stroke-dasharray:7.0,7.0;"/><polygon fill="#181818" points="734.79,383.6094,725.79,379.6094,729.79,383.6094,725.79,387.6094,734.79,383.6094" style="stroke:#181818;stroke-width:1.0;"/></g><!--link venue to user--><g id="link_venue_user"><path d="M438.18,401.1094 C485.5,401.1094 554.2,401.1094 598.82,401.1094 " fill="none" id="venue-to-user" style="stroke:#181818;stroke-width:1.0;stroke-dasharray:7.0,7.0;"/><polygon fill="#181818" points="604.82,401.1094,595.82,397.1094,599.82,401.1094,595.82,405.1094,604.82,401.1094" style="stroke:#181818;stroke-width:1.0;"/></g><!--link venue to reservation--><g id="link_venue_reservation"><path d="M438.44,421.7794 C456.82,421.7794 474,421.7794 474,421.7794 C474,421.7794 474,417.5294 474,420.0994 " fill="none" id="venue-to-reservation" style="stroke:#181818;stroke-width:1.0;stroke-dasharray:7.0,7.0;"/><polygon fill="#181818" points="474,426.0994,478,417.0994,474,421.0994,470,417.0994,474,426.0994" style="stroke:#181818;stroke-width:1.0;"/></g><!--link reservation to venue--><g id="link_reservation_venue"><path d="M469,426.0394 C469,421.2094 469,417.4394 469,417.4394 C469,417.4394 460.48,417.4394 444.27,417.4394 " fill="none" id="reservation-to-venue" style="stroke:#181818;stroke-width:1.0;stroke-dasharray:7.0,7.0;"/><polygon fill="#181818" points="438.27,417.4394,447.27,421.4394,443.27,417.4394,447.27,413.4394,438.27,417.4394" style="stroke:#181818;stroke-width:1.0;"/></g><!--link reservation to user--><g id="link_reservation_user"><path d="M579,425.9294 C579,416.3794 579,407.1094 579,407.1094 C579,407.1094 585.27,407.1094 598.99,407.1094 " fill="none" id="reservation-to-user" style="stroke:#181818;stroke-width:1.0;stroke-dasharray:7.0,7.0;"/><polygon fill="#181818" points="604.99,407.1094,595.99,403.1094,599.99,407.1094,595.99,411.1094,604.99,407.1094" style="stroke:#181818;stroke-width:1.0;"/></g><!--link engagement to venue--><g id="link_engagement_venue"><path d="M312.13,418.6094 C325.24,418.6094 332.73,418.6094 344.9,418.6094 " fill="none" id="engagement-to-venue" style="stroke:#181818;stroke-width:1.0;stroke-dasharray:7.0,7.0;"/><polygon fill="#181818" points="350.9,418.6094,341.9,414.6094,345.9,418.6094,341.9,422.6094,350.9,418.6094" style="stroke:#181818;stroke-width:1.0;"/></g><!--link engagement to reservation--><g id="link_engagement_reservation"><path d="M312.18,439.1094 C357.6,439.1094 411.83,439.1094 456.62,439.1094 " fill="none" id="engagement-to-reservation" style="stroke:#181818;stroke-width:1.0;stroke-dasharray:7.0,7.0;"/><polygon fill="#181818" points="462.62,439.1094,453.62,435.1094,457.62,439.1094,453.62,443.1094,462.62,439.1094" style="stroke:#181818;stroke-width:1.0;"/></g><!--link dashboard to engagement--><g id="link_dashboard_engagement"><path d="M164.28,431.6094 C170.05,431.6094 169.93,431.6094 175.76,431.6094 " fill="none" id="dashboard-to-engagement" style="stroke:#181818;stroke-width:1.0;stroke-dasharray:7.0,7.0;"/><polygon fill="#181818" points="181.76,431.6094,172.76,427.6094,176.76,431.6094,172.76,435.6094,181.76,431.6094" style="stroke:#181818;stroke-width:1.0;"/></g><!--link dashboard to reservation--><g id="link_dashboard_reservation"><path d="M164.27,452.1094 C243.08,452.1094 376.38,452.1094 456.87,452.1094 " fill="none" id="dashboard-to-reservation" style="stroke:#181818;stroke-width:1.0;stroke-dasharray:7.0,7.0;"/><polygon fill="#181818" points="462.87,452.1094,453.87,448.1094,457.87,452.1094,453.87,456.1094,462.87,452.1094" style="stroke:#181818;stroke-width:1.0;"/></g><!--link system to audit--><g id="link_system_audit"><path d="M828.71,429.6094 C839.29,429.6094 844.45,429.6094 854.71,429.6094 " fill="none" id="system-to-audit" style="stroke:#181818;stroke-width:1.0;stroke-dasharray:7.0,7.0;"/><polygon fill="#181818" points="860.71,429.6094,851.71,425.6094,855.71,429.6094,851.71,433.6094,860.71,429.6094" style="stroke:#181818;stroke-width:1.0;"/></g><!--link storage to common--><g id="link_storage_common"><path d="M831.06,374.6094 C836.95,374.6094 836.98,374.6094 842.91,374.6094 " fill="none" id="storage-to-common" style="stroke:#181818;stroke-width:1.0;stroke-dasharray:7.0,7.0;"/><polygon fill="#181818" points="848.91,374.6094,839.91,370.6094,843.91,374.6094,839.91,378.6094,848.91,374.6094" style="stroke:#181818;stroke-width:1.0;"/></g><!--SRC=[TLEnRjmm3Dtz5KJs2r2WGwOCJT6fdG9aAJem5izMpnPTYRhWKFIh-WdziSYKV9QTT3ZV8z-ZJ3tIOcKW-Ce_yOcS13Z0PukTnn7144puAv9GQ9g1ZWB2u6tN2nZhgHNBhWadwoPCUdZ6zjHvZiuyyC0UNdehLF6XHyClrdLmn27Kp9GgiQD7kQHMveFHTKCj6AmZkKm4xANdYXZPSTjx7Wd4nxh4iQ504tpuM2KzkfCcxvf6k2FfoSFl1fOEuEQBPoVap0rWW2LGIILgsPCAPh2bZeGIFGMbbs0h6V32KLIGuPPEDddAxyymqN-QkiTF2Imj5hplyDk_loOEd5g8harZmc5fASMYYL9I5M6KNaKps9Cna5To1dloJ2vcHnJjwMG1-JFExrLH5U-bvBhqFwPLLEKQxeK6G__CwBCDrqXbQjTxRaXQW70c7wv-L9dt335MYYC9xUaWx1F8eyhuZUGIXCQiKBWNjEoEjYlBDCEtWd4ijcLORZZ_qZsN5OFRs_kyZfjCsQ1DhYnTapauVE-jCUH-w9TzkC_JR-QdodNUyoCVMEwfSrxvDQndM-5Lka_cZLa7_VzaVVHruCfKQx8bwf8y04tdSPQx5ElKsrS0]--></g></svg>